<svg xmlns="http://www.w3.org/2000/svg" viewBox="0 0 200 200">
  <circle cx="100" cy="100" r="90" fill="none" stroke="#9E3300" stroke-width="1.5" stroke-dasharray="4,4"/>
  <circle cx="100" cy="100" r="75" fill="none" stroke="#9E3300" stroke-width="1"/>
  <circle cx="100" cy="100" r="60" fill="none" stroke="#9E3300" stroke-width="1.5" stroke-dasharray="2,3"/>
  <circle cx="100" cy="100" r="45" fill="none" stroke="#9E3300" stroke-width="1"/>
  <circle cx="100" cy="100" r="30" fill="none" stroke="#9E3300" stroke-width="1.5"/>
  
  <!-- Radiant Spokes -->
  <line x1="100" y1="10" x2="100" y2="190" stroke="#9E3300" stroke-width="0.8"/>
  <line x1="10" y1="100" x2="190" y2="100" stroke="#9E3300" stroke-width="0.8"/>
  <line x1="36" y1="36" x2="164" y2="164" stroke="#9E3300" stroke-width="0.8"/>
  <line x1="164" y1="36" x2="36" y2="164" stroke="#9E3300" stroke-width="0.8"/>
  
  <!-- Additional Angles -->
  <line x1="64" y1="18" x2="136" y2="182" stroke="#9E3300" stroke-width="0.6"/>
  <line x1="136" y1="18" x2="64" y2="182" stroke="#9E3300" stroke-width="0.6"/>
  <line x1="18" y1="64" x2="182" y2="136" stroke="#9E3300" stroke-width="0.6"/>
  <line x1="18" y1="136" x2="182" y2="64" stroke="#9E3300" stroke-width="0.6"/>
  
  <!-- Center Accents -->
  <circle cx="100" cy="100" r="8" fill="#9E3300" opacity="0.6"/>
  
  <!-- Tiny dots at outer bounds -->
  <circle cx="100" cy="20" r="3" fill="#9E3300"/>
  <circle cx="100" cy="180" r="3" fill="#9E3300"/>
  <circle cx="20" cy="100" r="3" fill="#9E3300"/>
  <circle cx="180" cy="100" r="3" fill="#9E3300"/>
  <circle cx="44" cy="44" r="2.5" fill="#9E3300"/>
  <circle cx="156" cy="156" r="2.5" fill="#9E3300"/>
  <circle cx="156" cy="44" r="2.5" fill="#9E3300"/>
  <circle cx="44" cy="156" r="2.5" fill="#9E3300"/>
</svg>
